# xmcd
#
# Track frame offsets: 
#        150
#        12630
#        25615
#        37055
#        51437
#        64860
#        79845
#        92985
#        104967
#        119122
#        131367
#        143072
#        156905
#        172110
#        184297
#        196342
#        206945
#        220160
#        229035
#        243847
#
# Disc length: 3399 seconds
#
# Revision: 1
# Processed by: cddbd v1.5.2PL0 Copyright (c) Steve Scherf et al.
# Submitted via: ExactAudioCopyFreeDBPlugin 1.0
#
DISCID=350d4514
DTITLE=Charles Brown - The Complete Aladdin Recordings of Charles Brow
DTITLE=n [Mosaic box set]
DYEAR=1994
DGENRE=Rhythm and Blues
TTITLE0=Evening Shadows
TTITLE1=Rollin' Like a Pebble in the Sand
TTITLE2=Rising Sun
TTITLE3=I Lost Everything
TTITLE4=Don't Leave Poor Me (alternate take)
TTITLE5=Don't Leave Poor Me
TTITLE6=Lonesome Feeling
TTITLE7=Cryin' and Driftin' Blues
TTITLE8=Goodnight My Love
TTITLE9=Cryin' Mercy
TTITLE10=P.S. I Love You
TTITLE11=Let's Walk
TTITLE12=Everybody's Got Troubles
TTITLE13=My Silent Love
TTITLE14=I Want to Fool Around with You
TTITLE15=Honey Sipper
TTITLE16=By the Bend in the River
TTITLE17=I've Been Saving My Love for You
TTITLE18=Nite After Nite
TTITLE19=Walk with Me
EXTD=
EXTT0=
EXTT1=
EXTT2=
EXTT3=
EXTT4=
EXTT5=
EXTT6=
EXTT7=
EXTT8=
EXTT9=
EXTT10=
EXTT11=
EXTT12=
EXTT13=
EXTT14=
EXTT15=
EXTT16=
EXTT17=
EXTT18=
EXTT19=
PLAYORDER=
